<?xml version="1.0" encoding="utf-8"?>
<!-- Generator: Adobe Illustrator 22.1.0, SVG Export Plug-In . SVG Version: 6.00 Build 0)  -->
<svg version="1.0" id="Camada_1" xmlns="http://www.w3.org/2000/svg" xmlns:xlink="http://www.w3.org/1999/xlink" x="0px" y="0px"
	 viewBox="0 0 65.6 63.3" style="enable-background:new 0 0 65.6 63.3;" xml:space="preserve">
<style type="text/css">
	.st0{fill:#848484;}
	.st1{fill:none;stroke:#35457E;stroke-width:5;stroke-linecap:round;stroke-miterlimit:10;}
	.st2{fill:#515151;}
	.st3{fill:#999999;}
</style>
<g>
	<g>
		<g>
			<g>
				<g>
					<circle class="st0" cx="33.8" cy="9.5" r="7.4"/>
				</g>
				<g>
					<path class="st0" d="M33.6,18.9c-7,0-12.7,5.7-12.7,12.7h25.5C46.3,24.6,40.6,18.9,33.6,18.9z"/>
				</g>
			</g>
			<g>
				<g>
					<path class="st0" d="M57.3,13.5c0,3.3-2.7,6.1-6.1,6.1c-3.3,0-6.1-2.7-6.1-6.1s2.7-6.1,6.1-6.1C54.6,7.4,57.3,10.1,57.3,13.5z"
						/>
				</g>
				<g>
					<path class="st0" d="M51,21.2c-2.3,0-4.4,0.7-6.1,1.9c2,2.3,3.3,5.2,3.3,8.5h13.3C61.5,25.9,56.8,21.2,51,21.2z"/>
				</g>
			</g>
			<g>
				<g>
					<path class="st0" d="M9.9,13.5c0,3.3,2.7,6.1,6.1,6.1s6.1-2.7,6.1-6.1s-2.7-6.1-6.1-6.1S9.9,10.1,9.9,13.5z"/>
				</g>
				<g>
					<path class="st0" d="M16.1,21.2c2.3,0,4.4,0.7,6.1,1.9c-2,2.3-3.3,5.2-3.3,8.5H5.7C5.7,25.9,10.3,21.2,16.1,21.2z"/>
				</g>
			</g>
		</g>
	</g>
	<g>
		<g>
			<g>
				<polyline class="st1" points="24.9,20.1 32.4,29.2 44.5,15.4 				"/>
			</g>
		</g>
	</g>
</g>
<g>
	<g>
		<path class="st2" d="M10.5,40.6c-0.1,0.1-0.2,0.2-0.2,0.3c-0.1,0.1-0.2,0.1-0.3,0.1c-0.1,0-0.3,0-0.4-0.1
			c-0.1-0.1-0.3-0.2-0.5-0.3c-0.2-0.1-0.4-0.2-0.7-0.3S7.7,40,7.3,40c-0.3,0-0.6,0-0.9,0.1c-0.3,0.1-0.5,0.2-0.6,0.3
			S5.5,40.8,5.4,41c-0.1,0.2-0.1,0.4-0.1,0.7c0,0.3,0.1,0.6,0.3,0.8c0.2,0.2,0.4,0.4,0.7,0.5c0.3,0.1,0.6,0.3,1,0.4
			c0.4,0.1,0.7,0.2,1.1,0.4c0.4,0.1,0.8,0.3,1.1,0.5c0.4,0.2,0.7,0.4,1,0.7c0.3,0.3,0.5,0.6,0.7,1s0.3,0.8,0.3,1.4
			c0,0.6-0.1,1.2-0.3,1.7c-0.2,0.5-0.5,1-0.9,1.4c-0.4,0.4-0.9,0.7-1.4,0.9s-1.2,0.3-1.9,0.3c-0.4,0-0.8,0-1.2-0.1
			c-0.4-0.1-0.8-0.2-1.2-0.4c-0.4-0.2-0.7-0.3-1.1-0.5s-0.6-0.5-0.9-0.7l0.7-1.2c0.1-0.1,0.1-0.2,0.2-0.2c0.1-0.1,0.2-0.1,0.3-0.1
			c0.2,0,0.3,0.1,0.5,0.2c0.2,0.1,0.4,0.3,0.6,0.4c0.2,0.2,0.5,0.3,0.9,0.4c0.3,0.1,0.7,0.2,1.2,0.2c0.7,0,1.2-0.2,1.6-0.5
			c0.4-0.3,0.6-0.8,0.6-1.4c0-0.3-0.1-0.6-0.3-0.8s-0.4-0.4-0.7-0.6c-0.3-0.1-0.6-0.3-1-0.4S6.4,45.6,6,45.5
			c-0.4-0.1-0.7-0.3-1.1-0.4c-0.4-0.2-0.7-0.4-1-0.7c-0.3-0.3-0.5-0.6-0.7-1S3,42.4,3,41.8c0-0.5,0.1-0.9,0.3-1.4
			c0.2-0.5,0.5-0.9,0.8-1.2c0.4-0.4,0.8-0.6,1.4-0.8C6,38.1,6.6,38,7.3,38c0.8,0,1.5,0.1,2.2,0.4c0.7,0.2,1.2,0.6,1.7,1L10.5,40.6z"
			/>
		<path class="st2" d="M15.8,39.3c0,0.2,0,0.4-0.1,0.5c-0.1,0.2-0.2,0.3-0.3,0.4c-0.1,0.1-0.3,0.2-0.5,0.3c-0.2,0.1-0.4,0.1-0.6,0.1
			c-0.2,0-0.4,0-0.6-0.1s-0.3-0.2-0.5-0.3c-0.1-0.1-0.2-0.3-0.3-0.4s-0.1-0.4-0.1-0.5c0-0.2,0-0.4,0.1-0.6c0.1-0.2,0.2-0.3,0.3-0.5
			s0.3-0.2,0.5-0.3s0.4-0.1,0.6-0.1c0.2,0,0.4,0,0.6,0.1c0.2,0.1,0.3,0.2,0.5,0.3s0.2,0.3,0.3,0.5C15.7,38.9,15.8,39.1,15.8,39.3z
			 M15.4,42v9.4h-2.3V42H15.4z"/>
		<path class="st2" d="M23.5,43.8c-0.1,0.1-0.1,0.2-0.2,0.2s-0.2,0.1-0.3,0.1c-0.1,0-0.2,0-0.4-0.1c-0.1-0.1-0.3-0.1-0.4-0.2
			c-0.2-0.1-0.4-0.1-0.6-0.2c-0.2-0.1-0.5-0.1-0.7-0.1c-0.4,0-0.8,0.1-1,0.3c-0.3,0.2-0.4,0.4-0.4,0.7c0,0.2,0.1,0.4,0.2,0.5
			s0.3,0.3,0.5,0.4c0.2,0.1,0.5,0.2,0.7,0.3c0.3,0.1,0.6,0.2,0.8,0.3s0.6,0.2,0.8,0.3c0.3,0.1,0.5,0.3,0.7,0.5
			c0.2,0.2,0.4,0.4,0.5,0.7c0.1,0.3,0.2,0.6,0.2,1c0,0.5-0.1,0.9-0.2,1.2s-0.4,0.7-0.7,1c-0.3,0.3-0.7,0.5-1.2,0.6
			c-0.5,0.2-1,0.2-1.6,0.2c-0.3,0-0.6,0-0.9-0.1c-0.3-0.1-0.6-0.1-0.9-0.2c-0.3-0.1-0.5-0.2-0.8-0.4c-0.2-0.1-0.5-0.3-0.6-0.5
			l0.5-0.9c0.1-0.1,0.1-0.2,0.2-0.2s0.2-0.1,0.3-0.1c0.1,0,0.3,0,0.4,0.1c0.1,0.1,0.3,0.2,0.4,0.3c0.2,0.1,0.4,0.2,0.6,0.3
			s0.5,0.1,0.8,0.1c0.3,0,0.5,0,0.7-0.1c0.2-0.1,0.4-0.1,0.5-0.3c0.1-0.1,0.2-0.2,0.3-0.4c0.1-0.1,0.1-0.3,0.1-0.4
			c0-0.2-0.1-0.4-0.2-0.5c-0.1-0.1-0.3-0.3-0.5-0.4c-0.2-0.1-0.5-0.2-0.7-0.3c-0.3-0.1-0.6-0.2-0.8-0.3s-0.6-0.2-0.8-0.3
			s-0.5-0.3-0.7-0.5c-0.2-0.2-0.4-0.4-0.5-0.7c-0.1-0.3-0.2-0.6-0.2-1.1c0-0.4,0.1-0.7,0.2-1.1c0.2-0.3,0.4-0.6,0.7-0.9
			c0.3-0.3,0.7-0.5,1.1-0.6c0.4-0.2,1-0.2,1.5-0.2c0.6,0,1.2,0.1,1.8,0.3c0.5,0.2,1,0.5,1.3,0.8L23.5,43.8z"/>
		<path class="st2" d="M28.3,40.1v3.7H33v1.9h-4.6v3.7h5.9v2h-8.3V38.2h8.3v2H28.3z"/>
		<path class="st2" d="M37.9,43.2c0.2-0.2,0.4-0.4,0.6-0.5c0.2-0.2,0.4-0.3,0.7-0.4c0.2-0.1,0.5-0.2,0.8-0.3
			c0.3-0.1,0.6-0.1,0.9-0.1c0.5,0,1,0.1,1.4,0.3s0.7,0.4,1,0.7s0.5,0.7,0.6,1.1c0.1,0.4,0.2,0.9,0.2,1.4v6h-2.3v-6
			c0-0.6-0.1-1-0.4-1.3c-0.3-0.3-0.7-0.5-1.2-0.5c-0.4,0-0.8,0.1-1.1,0.3c-0.3,0.2-0.7,0.4-1,0.7v6.8h-2.3V42h1.4
			c0.3,0,0.5,0.1,0.6,0.4L37.9,43.2z"/>
		<path class="st2" d="M47.9,47c0,0.5,0.1,0.9,0.3,1.2c0.1,0.4,0.3,0.6,0.5,0.9s0.5,0.4,0.8,0.5c0.3,0.1,0.6,0.2,1,0.2
			c0.4,0,0.7,0,0.9-0.1c0.3-0.1,0.5-0.2,0.7-0.3c0.2-0.1,0.4-0.2,0.5-0.3c0.1-0.1,0.3-0.1,0.4-0.1c0.2,0,0.3,0.1,0.4,0.2l0.6,0.8
			c-0.2,0.3-0.5,0.5-0.8,0.7c-0.3,0.2-0.6,0.4-1,0.5c-0.3,0.1-0.7,0.2-1,0.3c-0.4,0-0.7,0.1-1,0.1c-0.7,0-1.3-0.1-1.8-0.3
			c-0.6-0.2-1-0.5-1.5-1c-0.4-0.4-0.7-0.9-1-1.6c-0.2-0.6-0.4-1.3-0.4-2.2c0-0.6,0.1-1.2,0.3-1.8s0.5-1.1,0.9-1.5
			c0.4-0.4,0.9-0.7,1.4-1c0.6-0.2,1.2-0.4,1.9-0.4c0.6,0,1.1,0.1,1.6,0.3c0.5,0.2,0.9,0.5,1.3,0.8s0.6,0.8,0.8,1.3
			c0.2,0.5,0.3,1.1,0.3,1.8c0,0.3,0,0.6-0.1,0.7C54,46.9,53.9,47,53.6,47H47.9z M52.1,45.6c0-0.3,0-0.6-0.1-0.8
			c-0.1-0.3-0.2-0.5-0.4-0.7c-0.2-0.2-0.4-0.3-0.6-0.5c-0.3-0.1-0.5-0.2-0.9-0.2c-0.7,0-1.2,0.2-1.5,0.6c-0.4,0.4-0.6,0.9-0.7,1.6
			H52.1z"/>
		<path class="st2" d="M64.1,51.4h-2.2c-0.2,0-0.3,0-0.4-0.1c-0.1-0.1-0.2-0.2-0.3-0.3l-2-3.3c0,0.1-0.1,0.2-0.1,0.3
			s-0.1,0.2-0.1,0.3L57.3,51c-0.1,0.1-0.1,0.2-0.2,0.3c-0.1,0.1-0.2,0.1-0.4,0.1h-2l3.2-4.8L54.8,42H57c0.2,0,0.3,0,0.4,0.1
			c0.1,0,0.1,0.1,0.2,0.2l2,3.1c0.1-0.2,0.2-0.4,0.3-0.6l1.6-2.5c0.1-0.2,0.3-0.3,0.5-0.3H64l-3.1,4.4L64.1,51.4z"/>
	</g>
	<g>
		<path class="st3" d="M4.5,55.1C4.5,55.1,4.5,55.2,4.5,55.1c-0.1,0.1-0.1,0.1-0.1,0.1c0,0-0.1,0-0.1,0c0,0-0.1-0.1-0.1-0.1
			C4.1,55.1,4,55,3.9,55c-0.1,0-0.2,0-0.3,0c-0.1,0-0.2,0-0.2,0c-0.1,0-0.1,0.1-0.2,0.1s-0.1,0.1-0.1,0.1c0,0.1,0,0.1,0,0.2
			c0,0.1,0,0.1,0.1,0.2c0,0.1,0.1,0.1,0.2,0.1c0.1,0,0.2,0.1,0.2,0.1s0.2,0.1,0.3,0.1C4,56,4.1,56,4.2,56s0.2,0.1,0.2,0.2
			c0.1,0.1,0.1,0.1,0.2,0.2c0,0.1,0.1,0.2,0.1,0.4c0,0.2,0,0.3-0.1,0.4c-0.1,0.1-0.1,0.2-0.2,0.3s-0.2,0.2-0.4,0.2
			c-0.1,0.1-0.3,0.1-0.5,0.1c-0.1,0-0.2,0-0.3,0c-0.1,0-0.2-0.1-0.3-0.1c-0.1,0-0.2-0.1-0.3-0.1c-0.1-0.1-0.2-0.1-0.2-0.2l0.2-0.3
			c0,0,0,0,0.1-0.1c0,0,0.1,0,0.1,0c0,0,0.1,0,0.1,0c0,0,0.1,0.1,0.2,0.1c0.1,0,0.1,0.1,0.2,0.1c0.1,0,0.2,0,0.3,0
			c0.2,0,0.3,0,0.4-0.1c0.1-0.1,0.1-0.2,0.1-0.4c0-0.1,0-0.2-0.1-0.2c0-0.1-0.1-0.1-0.2-0.1c-0.1,0-0.2-0.1-0.2-0.1
			s-0.2-0.1-0.3-0.1c-0.1,0-0.2-0.1-0.3-0.1c-0.1,0-0.2-0.1-0.2-0.2c-0.1-0.1-0.1-0.2-0.2-0.3s-0.1-0.2-0.1-0.4c0-0.1,0-0.2,0.1-0.4
			c0-0.1,0.1-0.2,0.2-0.3s0.2-0.2,0.3-0.2c0.1-0.1,0.3-0.1,0.5-0.1c0.2,0,0.4,0,0.5,0.1c0.2,0.1,0.3,0.1,0.4,0.3L4.5,55.1z"/>
		<path class="st3" d="M5.8,54.8c0,0,0,0.1,0,0.1c0,0,0,0.1-0.1,0.1c0,0-0.1,0.1-0.1,0.1c0,0-0.1,0-0.1,0c0,0-0.1,0-0.1,0
			c0,0-0.1,0-0.1-0.1c0,0-0.1-0.1-0.1-0.1c0,0,0-0.1,0-0.1c0-0.1,0-0.1,0-0.1c0,0,0-0.1,0.1-0.1c0,0,0.1-0.1,0.1-0.1
			c0,0,0.1,0,0.1,0c0.1,0,0.1,0,0.1,0c0,0,0.1,0,0.1,0.1c0,0,0.1,0.1,0.1,0.1C5.8,54.7,5.8,54.7,5.8,54.8z M5.8,55.5v2.4H5.2v-2.4
			H5.8z"/>
		<path class="st3" d="M7.8,55.9C7.8,56,7.8,56,7.8,55.9C7.7,56,7.7,56,7.7,56c0,0-0.1,0-0.1,0s-0.1,0-0.1-0.1c0,0-0.1,0-0.1-0.1
			s-0.1,0-0.2,0c-0.1,0-0.2,0-0.3,0.1S6.8,56,6.8,56.1c0,0.1,0,0.1,0.1,0.1c0,0,0.1,0.1,0.1,0.1c0.1,0,0.1,0,0.2,0.1
			c0.1,0,0.1,0,0.2,0.1c0.1,0,0.1,0.1,0.2,0.1s0.1,0.1,0.2,0.1s0.1,0.1,0.1,0.2c0,0.1,0,0.2,0,0.2c0,0.1,0,0.2-0.1,0.3
			c0,0.1-0.1,0.2-0.2,0.3c-0.1,0.1-0.2,0.1-0.3,0.2c-0.1,0-0.3,0.1-0.4,0.1c-0.1,0-0.2,0-0.2,0c-0.1,0-0.2,0-0.2-0.1
			s-0.1-0.1-0.2-0.1c-0.1,0-0.1-0.1-0.2-0.1l0.1-0.2c0,0,0,0,0.1-0.1c0,0,0.1,0,0.1,0s0.1,0,0.1,0c0,0,0.1,0,0.1,0.1s0.1,0,0.1,0.1
			c0.1,0,0.1,0,0.2,0c0.1,0,0.1,0,0.2,0c0,0,0.1,0,0.1-0.1s0.1-0.1,0.1-0.1s0-0.1,0-0.1c0-0.1,0-0.1,0-0.1c0,0-0.1-0.1-0.1-0.1
			s-0.1-0.1-0.2-0.1s-0.1,0-0.2-0.1c-0.1,0-0.1-0.1-0.2-0.1s-0.1-0.1-0.2-0.1c-0.1-0.1-0.1-0.1-0.1-0.2c0-0.1,0-0.2,0-0.3
			c0-0.1,0-0.2,0.1-0.3c0-0.1,0.1-0.2,0.2-0.2c0.1-0.1,0.2-0.1,0.3-0.2c0.1,0,0.2-0.1,0.4-0.1c0.2,0,0.3,0,0.4,0.1s0.2,0.1,0.3,0.2
			L7.8,55.9z"/>
		<path class="st3" d="M9.2,57.9c-0.2,0-0.4-0.1-0.5-0.2c-0.1-0.1-0.2-0.3-0.2-0.5v-1.3H8.3c0,0-0.1,0-0.1,0s0-0.1,0-0.1v-0.2
			l0.4-0.1l0.1-0.7c0,0,0-0.1,0-0.1c0,0,0,0,0.1,0h0.3v0.8h0.6v0.4H9.1v1.3c0,0.1,0,0.1,0.1,0.2c0,0,0.1,0.1,0.1,0.1
			c0,0,0.1,0,0.1,0c0,0,0,0,0.1,0c0,0,0,0,0,0c0,0,0,0,0,0c0,0,0,0,0,0c0,0,0,0,0,0l0.2,0.3c-0.1,0.1-0.2,0.1-0.3,0.2
			C9.4,57.9,9.3,57.9,9.2,57.9z"/>
		<path class="st3" d="M10.6,56.7c0,0.1,0,0.2,0.1,0.3c0,0.1,0.1,0.2,0.1,0.2c0.1,0.1,0.1,0.1,0.2,0.1c0.1,0,0.2,0,0.3,0
			s0.2,0,0.2,0s0.1,0,0.2-0.1c0.1,0,0.1-0.1,0.1-0.1s0.1,0,0.1,0c0,0,0.1,0,0.1,0.1l0.2,0.2c-0.1,0.1-0.1,0.1-0.2,0.2
			c-0.1,0.1-0.2,0.1-0.2,0.1c-0.1,0-0.2,0.1-0.3,0.1s-0.2,0-0.3,0c-0.2,0-0.3,0-0.5-0.1c-0.1-0.1-0.3-0.1-0.4-0.2
			c-0.1-0.1-0.2-0.2-0.2-0.4S10,56.8,10,56.6c0-0.2,0-0.3,0.1-0.5s0.1-0.3,0.2-0.4s0.2-0.2,0.4-0.3s0.3-0.1,0.5-0.1
			c0.2,0,0.3,0,0.4,0.1c0.1,0,0.2,0.1,0.3,0.2c0.1,0.1,0.2,0.2,0.2,0.3c0.1,0.1,0.1,0.3,0.1,0.5c0,0.1,0,0.1,0,0.2c0,0-0.1,0-0.1,0
			H10.6z M11.7,56.4c0-0.1,0-0.1,0-0.2c0-0.1-0.1-0.1-0.1-0.2c0,0-0.1-0.1-0.2-0.1s-0.1,0-0.2,0c-0.2,0-0.3,0-0.4,0.1
			c-0.1,0.1-0.2,0.2-0.2,0.4H11.7z"/>
		<path class="st3" d="M12.6,57.9v-2.4H13c0.1,0,0.1,0,0.1,0.1l0,0.2c0,0,0.1-0.1,0.1-0.1s0.1-0.1,0.1-0.1c0.1,0,0.1-0.1,0.2-0.1
			c0.1,0,0.1,0,0.2,0c0.2,0,0.3,0,0.4,0.1c0.1,0.1,0.2,0.2,0.2,0.3c0-0.1,0.1-0.1,0.1-0.2c0.1-0.1,0.1-0.1,0.2-0.1
			c0.1,0,0.1-0.1,0.2-0.1c0.1,0,0.2,0,0.2,0c0.1,0,0.2,0,0.4,0.1c0.1,0,0.2,0.1,0.3,0.2c0.1,0.1,0.1,0.2,0.2,0.3
			c0,0.1,0.1,0.2,0.1,0.4v1.5h-0.6v-1.5c0-0.2,0-0.3-0.1-0.3c-0.1-0.1-0.2-0.1-0.3-0.1c-0.1,0-0.1,0-0.2,0c-0.1,0-0.1,0-0.1,0.1
			s-0.1,0.1-0.1,0.1c0,0.1,0,0.1,0,0.2v1.5H14v-1.5c0-0.2,0-0.3-0.1-0.3s-0.2-0.1-0.3-0.1c-0.1,0-0.2,0-0.2,0.1s-0.1,0.1-0.2,0.2
			v1.7H12.6z"/>
		<path class="st3" d="M16.5,55.8c0.3-0.3,0.6-0.4,1-0.4c0.1,0,0.3,0,0.4,0.1s0.2,0.1,0.3,0.2c0.1,0.1,0.1,0.2,0.2,0.3
			s0.1,0.2,0.1,0.4v1.5h-0.3c-0.1,0-0.1,0-0.1,0c0,0-0.1,0-0.1-0.1l-0.1-0.2c-0.1,0.1-0.1,0.1-0.2,0.1s-0.1,0.1-0.2,0.1
			c-0.1,0-0.1,0-0.2,0.1c-0.1,0-0.1,0-0.2,0c-0.1,0-0.2,0-0.3,0c-0.1,0-0.2-0.1-0.2-0.1c-0.1-0.1-0.1-0.1-0.1-0.2s-0.1-0.2-0.1-0.3
			c0-0.1,0-0.1,0-0.2c0-0.1,0.1-0.1,0.1-0.2c0-0.1,0.1-0.1,0.2-0.2c0.1,0,0.2-0.1,0.3-0.1c0.1,0,0.2-0.1,0.4-0.1c0.1,0,0.3,0,0.5,0
			v-0.1c0-0.2,0-0.3-0.1-0.4c-0.1-0.1-0.2-0.1-0.3-0.1c-0.1,0-0.2,0-0.2,0c-0.1,0-0.1,0-0.2,0.1c0,0-0.1,0.1-0.1,0.1
			c0,0-0.1,0-0.1,0c0,0-0.1,0-0.1,0c0,0-0.1,0-0.1-0.1L16.5,55.8z M17.8,56.9c-0.2,0-0.3,0-0.4,0c-0.1,0-0.2,0-0.3,0.1
			C17,57,17,57,16.9,57.1c0,0,0,0.1,0,0.1c0,0.1,0,0.2,0.1,0.2c0.1,0,0.1,0.1,0.2,0.1c0.1,0,0.2,0,0.3-0.1c0.1,0,0.2-0.1,0.3-0.2
			V56.9z"/>
		<path class="st3" d="M22.1,54.4v3.5h-0.4c-0.1,0-0.1,0-0.1-0.1l0-0.2c-0.1,0.1-0.2,0.2-0.3,0.3s-0.3,0.1-0.4,0.1
			c-0.1,0-0.3,0-0.4-0.1c-0.1-0.1-0.2-0.1-0.3-0.2c-0.1-0.1-0.1-0.2-0.2-0.4c0-0.2-0.1-0.3-0.1-0.5c0-0.2,0-0.3,0.1-0.5
			s0.1-0.3,0.2-0.4c0.1-0.1,0.2-0.2,0.3-0.3c0.1-0.1,0.3-0.1,0.4-0.1c0.1,0,0.2,0,0.3,0.1s0.2,0.1,0.3,0.2v-1.3H22.1z M21.5,56.1
			c-0.1-0.1-0.1-0.1-0.2-0.2s-0.2,0-0.2,0c-0.1,0-0.2,0-0.2,0s-0.1,0.1-0.2,0.1c0,0.1-0.1,0.2-0.1,0.3s0,0.2,0,0.4
			c0,0.1,0,0.3,0,0.4c0,0.1,0.1,0.2,0.1,0.2s0.1,0.1,0.2,0.1s0.1,0,0.2,0c0.1,0,0.2,0,0.3-0.1s0.2-0.1,0.2-0.2V56.1z"/>
		<path class="st3" d="M23.1,56.7c0,0.1,0,0.2,0.1,0.3c0,0.1,0.1,0.2,0.1,0.2c0.1,0.1,0.1,0.1,0.2,0.1c0.1,0,0.2,0,0.3,0
			s0.2,0,0.2,0s0.1,0,0.2-0.1c0.1,0,0.1-0.1,0.1-0.1s0.1,0,0.1,0c0,0,0.1,0,0.1,0.1l0.2,0.2c-0.1,0.1-0.1,0.1-0.2,0.2
			c-0.1,0.1-0.2,0.1-0.2,0.1c-0.1,0-0.2,0.1-0.3,0.1s-0.2,0-0.3,0c-0.2,0-0.3,0-0.5-0.1c-0.1-0.1-0.3-0.1-0.4-0.2
			c-0.1-0.1-0.2-0.2-0.2-0.4s-0.1-0.3-0.1-0.6c0-0.2,0-0.3,0.1-0.5s0.1-0.3,0.2-0.4s0.2-0.2,0.4-0.3s0.3-0.1,0.5-0.1
			c0.2,0,0.3,0,0.4,0.1c0.1,0,0.2,0.1,0.3,0.2c0.1,0.1,0.2,0.2,0.2,0.3c0.1,0.1,0.1,0.3,0.1,0.5c0,0.1,0,0.1,0,0.2c0,0-0.1,0-0.1,0
			H23.1z M24.2,56.4c0-0.1,0-0.1,0-0.2c0-0.1-0.1-0.1-0.1-0.2c0,0-0.1-0.1-0.2-0.1s-0.1,0-0.2,0c-0.2,0-0.3,0-0.4,0.1
			c-0.1,0.1-0.2,0.2-0.2,0.4H24.2z"/>
		<path class="st3" d="M29.1,57.9h-0.5c-0.1,0-0.1,0-0.1,0c0,0-0.1-0.1-0.1-0.1L28.1,57h-1.4l-0.3,0.7c0,0,0,0.1-0.1,0.1
			s-0.1,0-0.1,0h-0.5l1.3-3.4h0.6L29.1,57.9z M28,56.6l-0.4-1.1c0,0,0-0.1-0.1-0.2c0-0.1,0-0.1-0.1-0.2c0,0.1,0,0.2-0.1,0.2
			c0,0.1,0,0.1-0.1,0.2l-0.4,1.1H28z"/>
		<path class="st3" d="M31.5,55.5l-0.9,2.4H30l-0.9-2.4h0.5c0,0,0.1,0,0.1,0c0,0,0,0,0.1,0.1l0.5,1.3c0,0.1,0,0.1,0.1,0.2
			s0,0.1,0,0.2c0-0.1,0-0.1,0.1-0.2s0-0.1,0.1-0.2l0.5-1.3c0,0,0-0.1,0.1-0.1c0,0,0.1,0,0.1,0H31.5z"/>
		<path class="st3" d="M31.7,55.8c0.3-0.3,0.6-0.4,1-0.4c0.1,0,0.3,0,0.4,0.1s0.2,0.1,0.3,0.2c0.1,0.1,0.1,0.2,0.2,0.3
			s0.1,0.2,0.1,0.4v1.5h-0.3c-0.1,0-0.1,0-0.1,0c0,0-0.1,0-0.1-0.1l-0.1-0.2c-0.1,0.1-0.1,0.1-0.2,0.1s-0.1,0.1-0.2,0.1
			c-0.1,0-0.1,0-0.2,0.1c-0.1,0-0.1,0-0.2,0c-0.1,0-0.2,0-0.3,0c-0.1,0-0.2-0.1-0.2-0.1c-0.1-0.1-0.1-0.1-0.1-0.2s-0.1-0.2-0.1-0.3
			c0-0.1,0-0.1,0-0.2c0-0.1,0.1-0.1,0.1-0.2c0-0.1,0.1-0.1,0.2-0.2c0.1,0,0.2-0.1,0.3-0.1c0.1,0,0.2-0.1,0.4-0.1c0.1,0,0.3,0,0.5,0
			v-0.1c0-0.2,0-0.3-0.1-0.4c-0.1-0.1-0.2-0.1-0.3-0.1c-0.1,0-0.2,0-0.2,0c-0.1,0-0.1,0-0.2,0.1c0,0-0.1,0.1-0.1,0.1
			c0,0-0.1,0-0.1,0c0,0-0.1,0-0.1,0c0,0-0.1,0-0.1-0.1L31.7,55.8z M33,56.9c-0.2,0-0.3,0-0.4,0c-0.1,0-0.2,0-0.3,0.1
			c-0.1,0-0.1,0.1-0.1,0.1c0,0,0,0.1,0,0.1c0,0.1,0,0.2,0.1,0.2c0.1,0,0.1,0.1,0.2,0.1c0.1,0,0.2,0,0.3-0.1c0.1,0,0.2-0.1,0.3-0.2
			V56.9z"/>
		<path class="st3" d="M34.7,54.4v3.5h-0.6v-3.5H34.7z"/>
		<path class="st3" d="M35.9,54.8c0,0,0,0.1,0,0.1c0,0,0,0.1-0.1,0.1c0,0-0.1,0.1-0.1,0.1c0,0-0.1,0-0.1,0c0,0-0.1,0-0.1,0
			c0,0-0.1,0-0.1-0.1c0,0-0.1-0.1-0.1-0.1c0,0,0-0.1,0-0.1c0-0.1,0-0.1,0-0.1c0,0,0-0.1,0.1-0.1c0,0,0.1-0.1,0.1-0.1
			c0,0,0.1,0,0.1,0c0.1,0,0.1,0,0.1,0c0,0,0.1,0,0.1,0.1c0,0,0.1,0.1,0.1,0.1C35.9,54.7,35.9,54.7,35.9,54.8z M35.9,55.5v2.4h-0.6
			v-2.4H35.9z"/>
		<path class="st3" d="M36.4,55.8c0.3-0.3,0.6-0.4,1-0.4c0.1,0,0.3,0,0.4,0.1s0.2,0.1,0.3,0.2c0.1,0.1,0.1,0.2,0.2,0.3
			s0.1,0.2,0.1,0.4v1.5H38c-0.1,0-0.1,0-0.1,0c0,0-0.1,0-0.1-0.1l-0.1-0.2c-0.1,0.1-0.1,0.1-0.2,0.1s-0.1,0.1-0.2,0.1
			c-0.1,0-0.1,0-0.2,0.1c-0.1,0-0.1,0-0.2,0c-0.1,0-0.2,0-0.3,0c-0.1,0-0.2-0.1-0.2-0.1c-0.1-0.1-0.1-0.1-0.1-0.2s-0.1-0.2-0.1-0.3
			c0-0.1,0-0.1,0-0.2c0-0.1,0.1-0.1,0.1-0.2c0-0.1,0.1-0.1,0.2-0.2c0.1,0,0.2-0.1,0.3-0.1c0.1,0,0.2-0.1,0.4-0.1c0.1,0,0.3,0,0.5,0
			v-0.1c0-0.2,0-0.3-0.1-0.4c-0.1-0.1-0.2-0.1-0.3-0.1c-0.1,0-0.2,0-0.2,0c-0.1,0-0.1,0-0.2,0.1c0,0-0.1,0.1-0.1,0.1
			c0,0-0.1,0-0.1,0c0,0-0.1,0-0.1,0c0,0-0.1,0-0.1-0.1L36.4,55.8z M37.7,56.9c-0.2,0-0.3,0-0.4,0c-0.1,0-0.2,0-0.3,0.1
			c-0.1,0-0.1,0.1-0.1,0.1c0,0,0,0.1,0,0.1c0,0.1,0,0.2,0.1,0.2c0.1,0,0.1,0.1,0.2,0.1c0.1,0,0.2,0,0.3-0.1c0.1,0,0.2-0.1,0.3-0.2
			V56.9z"/>
		<path class="st3" d="M40.7,57.5c-0.1,0.1-0.2,0.2-0.4,0.3c-0.1,0.1-0.3,0.1-0.4,0.1l0,0.1c0.1,0,0.2,0.1,0.3,0.1
			c0.1,0.1,0.1,0.1,0.1,0.2c0,0.1,0,0.1,0,0.1c0,0-0.1,0.1-0.1,0.1c-0.1,0-0.1,0.1-0.2,0.1c-0.1,0-0.1,0-0.2,0c-0.1,0-0.1,0-0.2,0
			c-0.1,0-0.1,0-0.2,0l0.1-0.2c0,0,0-0.1,0.1-0.1c0,0,0,0,0.1,0s0.1,0,0.1,0c0.1,0,0.1,0,0.1,0c0,0,0,0,0-0.1c0,0,0-0.1-0.1-0.1
			c-0.1,0-0.1,0-0.3-0.1l0.1-0.3c-0.1,0-0.3-0.1-0.4-0.1c-0.1-0.1-0.2-0.1-0.3-0.2c-0.1-0.1-0.1-0.2-0.2-0.4c0-0.1-0.1-0.3-0.1-0.5
			c0-0.2,0-0.3,0.1-0.5c0.1-0.1,0.1-0.3,0.2-0.4c0.1-0.1,0.2-0.2,0.4-0.3c0.1-0.1,0.3-0.1,0.5-0.1c0.2,0,0.3,0,0.5,0.1
			s0.3,0.1,0.4,0.2L40.5,56c0,0,0,0-0.1,0.1s0,0-0.1,0c0,0-0.1,0-0.1,0c0,0-0.1,0-0.1-0.1c0,0-0.1,0-0.1-0.1c-0.1,0-0.1,0-0.2,0
			c-0.1,0-0.2,0-0.3,0.1c-0.1,0-0.1,0.1-0.2,0.2c-0.1,0.1-0.1,0.2-0.1,0.2c0,0.1,0,0.2,0,0.3c0,0.1,0,0.2,0,0.3s0.1,0.2,0.1,0.3
			c0.1,0.1,0.1,0.1,0.2,0.2c0.1,0,0.2,0.1,0.2,0.1c0.1,0,0.2,0,0.2,0s0.1,0,0.1-0.1c0,0,0.1-0.1,0.1-0.1s0.1,0,0.1,0
			c0,0,0.1,0,0.1,0.1L40.7,57.5z"/>
		<path class="st3" d="M41,55.8c0.3-0.3,0.6-0.4,1-0.4c0.1,0,0.3,0,0.4,0.1s0.2,0.1,0.3,0.2c0.1,0.1,0.1,0.2,0.2,0.3
			s0.1,0.2,0.1,0.4v1.5h-0.3c-0.1,0-0.1,0-0.1,0c0,0-0.1,0-0.1-0.1l-0.1-0.2c-0.1,0.1-0.1,0.1-0.2,0.1s-0.1,0.1-0.2,0.1
			c-0.1,0-0.1,0-0.2,0.1c-0.1,0-0.1,0-0.2,0c-0.1,0-0.2,0-0.3,0c-0.1,0-0.2-0.1-0.2-0.1c-0.1-0.1-0.1-0.1-0.1-0.2s-0.1-0.2-0.1-0.3
			c0-0.1,0-0.1,0-0.2c0-0.1,0.1-0.1,0.1-0.2c0-0.1,0.1-0.1,0.2-0.2c0.1,0,0.2-0.1,0.3-0.1c0.1,0,0.2-0.1,0.4-0.1c0.1,0,0.3,0,0.5,0
			v-0.1c0-0.2,0-0.3-0.1-0.4c-0.1-0.1-0.2-0.1-0.3-0.1c-0.1,0-0.2,0-0.2,0c-0.1,0-0.1,0-0.2,0.1c0,0-0.1,0.1-0.1,0.1
			c0,0-0.1,0-0.1,0c0,0-0.1,0-0.1,0c0,0-0.1,0-0.1-0.1L41,55.8z M42.2,54.7c0,0,0.1,0,0.1,0s0-0.1,0-0.1h0.3c0,0.1,0,0.2,0,0.2
			c0,0.1-0.1,0.1-0.1,0.2c0,0.1-0.1,0.1-0.2,0.1c-0.1,0-0.1,0-0.2,0c-0.1,0-0.1,0-0.2,0c0,0-0.1,0-0.1-0.1c0,0-0.1,0-0.1-0.1
			c0,0-0.1,0-0.1,0c0,0-0.1,0-0.1,0c0,0,0,0.1,0,0.1h-0.4c0-0.1,0-0.2,0-0.2c0-0.1,0.1-0.1,0.1-0.2c0,0,0.1-0.1,0.2-0.1
			c0.1,0,0.1,0,0.2,0c0.1,0,0.1,0,0.2,0s0.1,0,0.1,0.1c0,0,0.1,0,0.1,0.1C42.1,54.7,42.2,54.7,42.2,54.7z M42.3,56.9
			c-0.2,0-0.3,0-0.4,0c-0.1,0-0.2,0-0.3,0.1c-0.1,0-0.1,0.1-0.1,0.1c0,0,0,0.1,0,0.1c0,0.1,0,0.2,0.1,0.2c0.1,0,0.1,0.1,0.2,0.1
			c0.1,0,0.2,0,0.3-0.1c0.1,0,0.2-0.1,0.3-0.2V56.9z"/>
		<path class="st3" d="M44.5,55.4c0.2,0,0.3,0,0.5,0.1s0.3,0.1,0.4,0.2c0.1,0.1,0.2,0.2,0.2,0.4c0.1,0.2,0.1,0.3,0.1,0.5
			c0,0.2,0,0.4-0.1,0.5c-0.1,0.2-0.1,0.3-0.2,0.4c-0.1,0.1-0.2,0.2-0.4,0.2s-0.3,0.1-0.5,0.1c-0.2,0-0.3,0-0.5-0.1s-0.3-0.1-0.4-0.2
			c-0.1-0.1-0.2-0.2-0.2-0.4c-0.1-0.2-0.1-0.3-0.1-0.5c0-0.2,0-0.4,0.1-0.5s0.1-0.3,0.2-0.4c0.1-0.1,0.2-0.2,0.4-0.2
			S44.3,55.4,44.5,55.4z M44.5,57.5c0.2,0,0.3-0.1,0.4-0.2c0.1-0.1,0.1-0.3,0.1-0.6s0-0.5-0.1-0.6c-0.1-0.1-0.2-0.2-0.4-0.2
			c-0.2,0-0.4,0.1-0.4,0.2c-0.1,0.1-0.1,0.3-0.1,0.6c0,0.3,0,0.5,0.1,0.6C44.1,57.4,44.3,57.5,44.5,57.5z"/>
		<path class="st3" d="M49.3,54.4v3.5H49c-0.1,0-0.1,0-0.1-0.1l0-0.2c-0.1,0.1-0.2,0.2-0.3,0.3s-0.3,0.1-0.4,0.1
			c-0.1,0-0.3,0-0.4-0.1c-0.1-0.1-0.2-0.1-0.3-0.2c-0.1-0.1-0.1-0.2-0.2-0.4c0-0.2-0.1-0.3-0.1-0.5c0-0.2,0-0.3,0.1-0.5
			s0.1-0.3,0.2-0.4c0.1-0.1,0.2-0.2,0.3-0.3c0.1-0.1,0.3-0.1,0.4-0.1c0.1,0,0.2,0,0.3,0.1s0.2,0.1,0.3,0.2v-1.3H49.3z M48.7,56.1
			c-0.1-0.1-0.1-0.1-0.2-0.2s-0.2,0-0.2,0c-0.1,0-0.2,0-0.2,0s-0.1,0.1-0.2,0.1c0,0.1-0.1,0.2-0.1,0.3s0,0.2,0,0.4
			c0,0.1,0,0.3,0,0.4c0,0.1,0.1,0.2,0.1,0.2s0.1,0.1,0.2,0.1s0.1,0,0.2,0c0.1,0,0.2,0,0.3-0.1s0.2-0.1,0.2-0.2V56.1z"/>
		<path class="st3" d="M50.9,55.4c0.2,0,0.3,0,0.5,0.1s0.3,0.1,0.4,0.2c0.1,0.1,0.2,0.2,0.2,0.4c0.1,0.2,0.1,0.3,0.1,0.5
			c0,0.2,0,0.4-0.1,0.5c-0.1,0.2-0.1,0.3-0.2,0.4c-0.1,0.1-0.2,0.2-0.4,0.2s-0.3,0.1-0.5,0.1c-0.2,0-0.3,0-0.5-0.1s-0.3-0.1-0.4-0.2
			c-0.1-0.1-0.2-0.2-0.2-0.4c-0.1-0.2-0.1-0.3-0.1-0.5c0-0.2,0-0.4,0.1-0.5s0.1-0.3,0.2-0.4c0.1-0.1,0.2-0.2,0.4-0.2
			S50.8,55.4,50.9,55.4z M50.9,57.5c0.2,0,0.3-0.1,0.4-0.2c0.1-0.1,0.1-0.3,0.1-0.6s0-0.5-0.1-0.6c-0.1-0.1-0.2-0.2-0.4-0.2
			c-0.2,0-0.4,0.1-0.4,0.2c-0.1,0.1-0.1,0.3-0.1,0.6c0,0.3,0,0.5,0.1,0.6C50.6,57.4,50.7,57.5,50.9,57.5z"/>
		<path class="st3" d="M54.4,55v0.9h1.2v0.5h-1.2v1h1.5v0.5h-2.1v-3.4h2.1V55H54.4z"/>
		<path class="st3" d="M56.9,55.8c0,0,0.1-0.1,0.2-0.1c0.1,0,0.1-0.1,0.2-0.1c0.1,0,0.1-0.1,0.2-0.1c0.1,0,0.1,0,0.2,0
			c0.1,0,0.2,0,0.3,0.1c0.1,0,0.2,0.1,0.3,0.2c0.1,0.1,0.1,0.2,0.2,0.3c0,0.1,0.1,0.2,0.1,0.4v1.5h-0.6v-1.5c0-0.1,0-0.3-0.1-0.3
			c-0.1-0.1-0.2-0.1-0.3-0.1c-0.1,0-0.2,0-0.3,0.1s-0.2,0.1-0.2,0.2v1.7h-0.6v-2.4h0.4c0.1,0,0.1,0,0.1,0.1L56.9,55.8z"/>
		<path class="st3" d="M59.4,56.7c0,0.1,0,0.2,0.1,0.3c0,0.1,0.1,0.2,0.1,0.2c0.1,0.1,0.1,0.1,0.2,0.1c0.1,0,0.2,0,0.3,0
			s0.2,0,0.2,0s0.1,0,0.2-0.1c0.1,0,0.1-0.1,0.1-0.1s0.1,0,0.1,0c0,0,0.1,0,0.1,0.1l0.2,0.2c-0.1,0.1-0.1,0.1-0.2,0.2
			c-0.1,0.1-0.2,0.1-0.2,0.1c-0.1,0-0.2,0.1-0.3,0.1s-0.2,0-0.3,0c-0.2,0-0.3,0-0.5-0.1c-0.1-0.1-0.3-0.1-0.4-0.2
			c-0.1-0.1-0.2-0.2-0.2-0.4s-0.1-0.3-0.1-0.6c0-0.2,0-0.3,0.1-0.5s0.1-0.3,0.2-0.4s0.2-0.2,0.4-0.3s0.3-0.1,0.5-0.1
			c0.2,0,0.3,0,0.4,0.1c0.1,0,0.2,0.1,0.3,0.2c0.1,0.1,0.2,0.2,0.2,0.3c0.1,0.1,0.1,0.3,0.1,0.5c0,0.1,0,0.1,0,0.2c0,0-0.1,0-0.1,0
			H59.4z M60.5,56.4c0-0.1,0-0.1,0-0.2c0-0.1-0.1-0.1-0.1-0.2c0,0-0.1-0.1-0.2-0.1s-0.1,0-0.2,0c-0.2,0-0.3,0-0.4,0.1
			c-0.1,0.1-0.2,0.2-0.2,0.4H60.5z"/>
		<path class="st3" d="M63.5,57.9H63c0,0-0.1,0-0.1,0c0,0,0,0-0.1-0.1l-0.5-0.8c0,0,0,0.1,0,0.1c0,0,0,0,0,0.1l-0.4,0.7
			c0,0,0,0.1-0.1,0.1s-0.1,0-0.1,0h-0.5l0.8-1.2l-0.8-1.2h0.6c0,0,0.1,0,0.1,0c0,0,0,0,0.1,0.1l0.5,0.8c0-0.1,0-0.1,0.1-0.2l0.4-0.6
			c0-0.1,0.1-0.1,0.1-0.1h0.5l-0.8,1.1L63.5,57.9z"/>
	</g>
</g>
</svg>
